<?xml version="1.0" encoding="utf-8"?>

<!-- Uploaded to: SVG Repo, www.svgrepo.com, Generator: SVG Repo Mixer Tools -->
<svg width="800px" height="800px" viewBox="0 0 32 32" fill="none" xmlns="http://www.w3.org/2000/svg">
<g clip-path="url(#clip0_901_2524)">
<path d="M31 18V8C31 8 31 7 30 7H6C6 7 5 7 5 8V25C5 25 5 27 3 27C1 27 1 25 1 25V2C1 2 1 1 2 1H8L10 3H26M23 25H27M25 27V23M18 31H4M31 25C31 21.687 28.313 19 25 19C21.687 19 19 21.687 19 25C19 28.313 21.687 31 25 31C28.313 31 31 28.313 31 25Z"
      stroke="#000000" stroke-width="2" stroke-linecap="round" stroke-linejoin="round"/>
</g>
<defs>
<clipPath id="clip0_901_2524">
<rect width="32" height="32" fill="white"/>
</clipPath>
</defs>
</svg>
