<?xml version="1.0" encoding="utf-8"?><!-- Uploaded to: SVG Repo, www.svgrepo.com, Generator: SVG Repo Mixer Tools -->
<svg version="1.1" id="Uploaded to svgrepo.com" xmlns="http://www.w3.org/2000/svg" xmlns:xlink="http://www.w3.org/1999/xlink"
	 width="800px" height="800px" viewBox="0 0 32 32" xml:space="preserve">
<style type="text/css">
	.blueprint_een{fill:#111918;}
</style>
<path class="blueprint_een" d="M31,19h-1v-1c0-0.552-0.448-1-1-1h-3c-0.552,0-1,0.448-1,1v1h-2v-1c0-0.552-0.448-1-1-1h-3
	c-0.552,0-1,0.448-1,1v1h-1v-7c0-0.552-0.448-1-1-1h-1v-1c0-0.552-0.448-1-1-1h-3c-0.552,0-1,0.448-1,1v1H9V4c0-0.552-0.448-1-1-1H7
	V2c0-0.552-0.448-1-1-1H3C2.448,1,2,1.448,2,2v1H1C0.448,3,0,3.448,0,4v25c0,0.552,0.448,1,1,1h30c0.552,0,1-0.448,1-1v-9
	C32,19.448,31.552,19,31,19z M30,28H2v-7h28V28z M12,11h1v1h-1V11z M15,13v7H2v-7H15z M4,3h1v1H4V3z M7,5v7H2V5H7z M20,19h1v1h-1V19
	z M27,19h1v1h-1V19z"/>
</svg>
