<?xml version="1.0" encoding="iso-8859-1"?>
<!-- Uploaded to: SVG Repo, www.svgrepo.com, Generator: SVG Repo Mixer Tools -->
<svg fill="#000000" height="800px" width="800px" version="1.1" id="Layer_1" xmlns="http://www.w3.org/2000/svg" xmlns:xlink="http://www.w3.org/1999/xlink"
	 viewBox="0 0 509.852 509.852" xml:space="preserve">
<g>
	<g>
		<g>
			<path d="M238.605,241.082c-24.939-18.688-55.787-29.909-89.259-29.909c-33.493,0-64.341,11.221-89.28,29.909l89.28,89.259
				L238.605,241.082z"/>
			<path d="M60.075,479.942c24.939,18.688,55.787,29.909,89.259,29.909c33.493,0,64.341-11.221,89.28-29.909l-89.28-89.259
				L60.075,479.942z"/>
			<path d="M29.909,271.247C11.221,296.186,0,327.034,0,360.506c0,33.493,11.221,64.341,29.909,89.28l89.259-89.28L29.909,271.247z"
				/>
			<path d="M448.006,104.512c0-11.776,9.536-21.333,21.333-21.333h40.512C501.34,41.451,468.401,8.512,426.673,0v40.512
				c0,11.776-9.536,21.333-21.333,21.333c-11.797,0-21.333-9.557-21.333-21.333V0c-41.728,8.512-74.667,41.451-83.179,83.179h40.512
				c11.797,0,21.333,9.557,21.333,21.333s-9.536,21.333-21.333,21.333h-40.512c8.512,41.707,41.493,74.475,83.179,82.987v87.68
				c0,54.293-37.205,80.107-87.04,84.437c0.939-6.699,1.707-13.483,1.707-20.437c0-33.493-11.221-64.32-29.909-89.259
				l-89.259,89.259l89.259,89.259c5.888-7.829,10.709-16.427,14.976-25.344c80.32-0.789,142.933-44.949,142.933-127.915v-87.68
				c41.685-8.512,74.667-41.28,83.179-82.987H469.34C457.542,125.845,448.006,116.288,448.006,104.512z"/>
		</g>
	</g>
</g>
</svg>
