<?xml version="1.0" encoding="utf-8"?>

<!-- Uploaded to: SVG Repo, www.svgrepo.com, Generator: SVG Repo Mixer Tools -->
<svg version="1.1" id="Icons" xmlns="http://www.w3.org/2000/svg" xmlns:xlink="http://www.w3.org/1999/xlink"
	 viewBox="0 0 32 32" xml:space="preserve">
<style type="text/css">
	.st0{fill:none;stroke:#000000;stroke-width:2;stroke-linecap:round;stroke-linejoin:round;stroke-miterlimit:10;}
	.st1{fill:none;stroke:#000000;stroke-width:2;stroke-linejoin:round;stroke-miterlimit:10;}
</style>
<line class="st0" x1="3" y1="19" x2="29" y2="19"/>
<line class="st0" x1="9" y1="29" x2="23" y2="29"/>
<path class="st0" d="M13,23c0,2.1-0.7,4.6-1.84,6"/>
<path class="st0" d="M20.84,29C19.7,27.6,19,25.1,19,23"/>
<path class="st0" d="M7,4H5C3.9,4,3,4.9,3,6v15c0,1.1,0.9,2,2,2h22c1.1,0,2-0.9,2-2V6c0-1.1-0.9-2-2-2h-2"/>
<line class="st0" x1="16" y1="4" x2="16" y2="9"/>
<polyline class="st0" points="17.98,2 16,4 14.02,2 "/>
<line class="st0" x1="11.71" y1="6.5" x2="16" y2="9"/>
<polyline class="st0" points="10.98,3.77 11.71,6.5 9,7.23 "/>
<line class="st0" x1="11.71" y1="11.5" x2="16" y2="9"/>
<polyline class="st0" points="9,10.77 11.71,11.5 10.98,14.23 "/>
<line class="st0" x1="16" y1="14" x2="16" y2="9"/>
<polyline class="st0" points="14.02,16 16,14 17.98,16 "/>
<line class="st0" x1="20.29" y1="11.5" x2="16" y2="9"/>
<polyline class="st0" points="21.02,14.23 20.29,11.5 23,10.77 "/>
<line class="st0" x1="20.29" y1="6.5" x2="16" y2="9"/>
<polyline class="st0" points="23,7.23 20.29,6.5 21.02,3.77 "/>
</svg>
